# xmcd
#
# Track frame offsets:
#	150
#	24229
#	50731
#	83765
#	117099
#
# Disc length: 1754 seconds
#
# Revision: 1
# Processed by: cddbd v1.4PL0 Copyright (c) Steve Scherf et al.
# Submitted via: EasyCDDAExtractor 6.2.0.3
#
DISCID=3306d805
DTITLE=Harpers Crossroads - Standing on the rubble
DYEAR=2000
DGENRE=Blues
TTITLE0=Going to Long Beach
TTITLE1=That Year in Provedence
TTITLE2=My Friends, My Lover
TTITLE3=Standing on the Rubble
TTITLE4=Dark hollow
EXTD=
EXTT0=
EXTT1=
EXTT2=
EXTT3=
EXTT4=
PLAYORDER=
